<?xml version="1.0" encoding="utf-8"?>
<!-- Generator: Adobe Illustrator 27.1.1, SVG Export Plug-In . SVG Version: 6.00 Build 0)  -->
<svg version="1.1" id="Art_3.0" xmlns="http://www.w3.org/2000/svg" xmlns:xlink="http://www.w3.org/1999/xlink" x="0px" y="0px"
	 viewBox="0 0 48 48" style="enable-background:new 0 0 48 48;" xml:space="preserve">
<style type="text/css">
	.st0{fill-opacity:0;}
</style>
<g>
	<polygon points="32.5,17.5 32.5,18.5 39.5,18.5 39.5,39.5 24.5,39.5 24.5,24.5 23.5,24.5 23.5,40.5 40.5,40.5 40.5,17.5 	"/>
	<rect x="26.5" y="26.5" width="11" height="1"/>
	<rect x="26.5" y="29.5" width="11" height="1"/>
	<rect x="26.5" y="32.5" width="6" height="1"/>
	<polygon points="17.29303,29 18.79297,30.5 14.5,30.5 14.5,29 14.5,24.5 13.5,24.5 13.5,31.5 18.79297,31.5 17.29297,33 
		18.70703,33 20.70703,31 18.70709,29 	"/>
	<path d="M30.5,7.5h-23v15h23V7.5z M29.5,21.5h-21v-13h21V21.5z"/>
	<rect x="14.5" y="10.5" width="1" height="9"/>
	<rect x="12.5" y="12.5" width="1" height="5"/>
	<rect x="10.5" y="13.5" width="1" height="3"/>
	<rect x="16.5" y="12.5" width="1" height="5"/>
	<rect x="18.5" y="13.5" width="1" height="3"/>
	<rect x="22.5" y="10.5" width="1" height="9"/>
	<rect x="20.5" y="12.5" width="1" height="5"/>
	<rect x="24.5" y="12.5" width="1" height="5"/>
	<rect x="26.5" y="13.5" width="1" height="3"/>
</g>
<rect class="st0" width="48" height="48"/>
</svg>
