<?xml version="1.0" encoding="utf-8"?>
<!-- Generator: Adobe Illustrator 27.1.1, SVG Export Plug-In . SVG Version: 6.00 Build 0)  -->
<svg version="1.1" id="Note" xmlns="http://www.w3.org/2000/svg" xmlns:xlink="http://www.w3.org/1999/xlink" x="0px" y="0px"
	 viewBox="0 0 48 48" style="enable-background:new 0 0 48 48;" xml:space="preserve">
<style type="text/css">
	.st0{fill-opacity:0;}
</style>
<path d="M43.5,10.5h-13v5.05078c-1.13965,0.23193-2,1.2417-2,2.44922v8.5h-1.09204c-0.20728-0.58057-0.75708-1-1.40796-1h-2.00049
	c-0.65088,0-1.20068,0.41943-1.40796,1H5.61621l-1.07129,4h8.80347l-1.60767,6H10v1l2.5083,0.00049h8.9834L24,37.5v-1h-1.74072
	l-1.60767-6H28.5V31c0,1.20752,0.86035,2.21729,2,2.44922V37.5h1.84814v0.00049h9.30371V37.5h1.84814
	C43.49999,37.5,43.49999,10.5,43.5,10.5z M21.22363,36.50049h-8.44727L14.38354,30.5h5.23291L21.22363,36.50049z M5.84765,29.5
	l0.53613-2h22.11621v2C28.49999,29.5,5.84766,29.5,5.84765,29.5z M29.49999,31V18c0-0.65186,0.41797-1.20801,1-1.41406v15.82812
	C29.91796,32.20801,29.49999,31.65185,29.49999,31z M33.65185,36.5l1.33984-5h4.0166l1.33984,5
	C40.34813,36.5,33.65184,36.5,33.65185,36.5z M42.49999,36.5h-1.11621l-1.60791-6h-5.55176l-1.60791,6h-1.11621v-25h11
	C42.49999,11.5,42.49999,36.5,42.49999,36.5z M36.49999,16.5h-1.5v-1h1.5V14h1v1.5h1.5v1h-1.5V18h-1V16.5z M39.49999,28.5h-5v-1h5
	V28.5z M39.49999,26.5h-5v-1h5V26.5z M39.49999,24.5h-5v-1h5V24.5z"/>
<rect class="st0" width="48" height="48"/>
</svg>
