<?xml version="1.0" encoding="utf-8"?>
<!-- Generator: Adobe Illustrator 27.1.1, SVG Export Plug-In . SVG Version: 6.00 Build 0)  -->
<svg version="1.1" id="Art_3.0" xmlns="http://www.w3.org/2000/svg" xmlns:xlink="http://www.w3.org/1999/xlink" x="0px" y="0px"
	 viewBox="0 0 48 48" style="enable-background:new 0 0 48 48;" xml:space="preserve">
<style type="text/css">
	.st0{fill-opacity:0;}
</style>
<path d="M41.46484,23.86328C41.4873,23.57812,41.5,23.29053,41.5,23c0-6.34082-5.15869-11.5-11.5-11.5
	c-4.80078,0-9.05225,2.95508-10.74365,7.40869C18.53125,18.63721,17.77442,18.5,17,18.5c-3.58398,0-6.5,2.91602-6.5,6.5
	c0,0.17383,0.00732,0.35059,0.02246,0.52783C10.34521,25.50928,10.17187,25.5,10,25.5c-3.03271,0-5.5,2.46729-5.5,5.5
	s2.46729,5.5,5.5,5.5h26c4.13574,0,7.5-3.36426,7.5-7.5C43.5,27.07422,42.7793,25.25977,41.46484,23.86328z M36,35.5H10
	c-2.48145,0-4.5-2.01855-4.5-4.5s2.01855-4.5,4.5-4.5c0.31494,0,0.64209,0.03955,0.99951,0.12109l0.74561,0.16943l-0.14355-0.75146
	C11.53419,25.6875,11.50001,25.33789,11.50001,25c0-3.03271,2.46729-5.5,5.5-5.5c0.80859,0,1.59521,0.17773,2.3374,0.52734
	l0.51221,0.24121l0.17627-0.5376c1.41699-4.3252,5.42529-7.23096,9.97412-7.23096c5.78955,0,10.5,4.71045,10.5,10.5
	c0,0.33789-0.01904,0.6709-0.05029,1.00098l-0.02246,0.23438l0.1665,0.16602C41.82325,25.62989,42.50001,27.2627,42.50001,29
	c0,3.58398-2.91602,6.5-6.5,6.5L36,35.5z"/>
<rect class="st0" width="48" height="48"/>
</svg>
