<?xml version="1.0" encoding="utf-8"?>
<!-- Generator: Adobe Illustrator 27.1.1, SVG Export Plug-In . SVG Version: 6.00 Build 0)  -->
<svg version="1.1" id="Art_3.0" xmlns="http://www.w3.org/2000/svg" xmlns:xlink="http://www.w3.org/1999/xlink" x="0px" y="0px"
	 viewBox="0 0 48 48" style="enable-background:new 0 0 48 48;" xml:space="preserve">
<style type="text/css">
	.st0{fill-opacity:0;}
</style>
<path d="M29.77295,25.71973c3.06982,0,5.95557-1.19531,8.12598-3.36621L38.25245,22l-6.06671-6.06689l0.92896-3.43896
	c0.77277-0.05957,1.38531-0.7002,1.38531-1.48828c0-0.82715-0.67285-1.5-1.5-1.5c-0.78326,0-1.42084,0.60547-1.48706,1.37207
	l-3.46222,0.91992l-6.05072-6.05078L21.64649,6.1006c-2.1709,2.1709-3.36621,5.05664-3.36621,8.12646
	s1.19531,5.95557,3.36621,8.12646c0.15912,0.15918,0.32977,0.30176,0.4964,0.4502l-1.86432,6.95752l-0.00024,0.00049h0.00012
	l-3.14679,11.74316h-6.63165v1h27v-1h-7.64282l-1.54645-5.77148l0.00568-0.00684l-0.00964-0.0083l-2.90942-10.85889
	c1.36975,0.56348,2.84973,0.86035,4.37561,0.86035L29.77295,25.71973z M30.47406,14.22168l1.55664-1.55078l-0.66083,2.44629
	C31.36987,15.11719,30.47406,14.22168,30.47406,14.22168z M33,10.50586c0.27588,0,0.5,0.22412,0.5,0.5s-0.22412,0.5-0.5,0.5
	s-0.5-0.22412-0.5-0.5S32.72412,10.50586,33,10.50586z M31.32465,11.9624l-1.55786,1.55176l-0.89862-0.89844
	C28.86817,12.61572,31.32465,11.9624,31.32465,11.9624z M19.28028,14.22705c0-2.63525,0.96484-5.12207,2.72803-7.05713
	L36.83009,21.9917c-1.93506,1.76318-4.42188,2.72803-7.05713,2.72803c-2.80273,0-5.4375-1.0918-7.41943-3.07324
	C20.3716,19.66456,19.28029,17.02979,19.28028,14.22705z M22.29096,26.11426l0.54907,0.646l-1.05261,1.2334
	C21.78742,27.99366,22.29096,26.11427,22.29096,26.11426z M25.54633,29.94434l-2.05188,1.72607l-2.05499-1.729l2.0567-2.40918
	L25.54633,29.94434z M24.15363,26.76172l0.54669-0.64062l0.5022,1.87451L24.15363,26.76172z M23.49457,37.95557l-3.50336-2.03125
	l3.50323-2.94678l3.50336,2.94678C26.9978,35.92432,23.49457,37.95557,23.49457,37.95557z M27.55066,36.76027l1.12531,4.19971
	l-4.18427-2.42627L27.55066,36.76027z M20.01868,34.59425l0.99292-3.70557l1.70599,1.43506L20.01868,34.59425z M19.4383,36.75978
	l3.05933,1.77393l-4.18488,2.42676l1.12555-4.20068V36.75978z M23.4947,39.11183l4.12726,2.39307h-8.25458L23.4947,39.11183z
	 M24.27131,32.32374l1.70624-1.43506l0.99286,3.70557C26.97041,34.59425,24.27131,32.32373,24.27131,32.32374z M24.38618,24.94874
	l-0.88861,1.04102l-0.89203-1.04932l0.38788-1.44727c0.39056,0.28662,0.79327,0.55273,1.21332,0.78613
	C24.20674,24.2793,24.38618,24.94873,24.38618,24.94874z"/>
<rect class="st0" width="48" height="48"/>
</svg>
