<svg id="Note" xmlns="http://www.w3.org/2000/svg" viewBox="0 0 48 48">
  <g>
    <path d="M9.5,7.5v19h14v3.293l-1.5-1.5V29.707l2,2,2-2V28.293l-1.5,1.5V26.5h14V7.5Zm28,18h-27V8.5h27Zm-18-4.293L21.207,19.5H25.5v4h3.02344L28.501,17.20605l.59765-.59765,1.03321.5166a1.49919,1.49919,0,0,0,1.73144-.28125l1.89795-1.89795L29.5,11.75V10l-4.6665,3.5H19.207l-.35351-.35352a1.20706,1.20706,0,1,0-1.707,1.707L17.5,15.207V16.793l-1,1V23.5h3Zm-1,1.293h-1V18.207l1-1V14.793l-.64648-.64649a.23229.23229,0,0,1,0-.293.20775.20775,0,0,1,.293,0L18.793,14.5H25.1665L28.5,12v.25l3.73877,2.8042-1.08252,1.08252a.499.499,0,0,1-.57715.09375l-1.67773-.83887L27.499,16.79346,27.51953,22.5H26.5v-4h-5v-2h-1v2.293l-2,2Zm2.02222,11.15332A2.47569,2.47569,0,0,0,18.72852,33H16.291v6.94141h2.4375a2.47569,2.47569,0,0,0,1.7937-.65332,3.82228,3.82228,0,0,0,.70215-2.86621A3.58855,3.58855,0,0,0,20.52222,33.65332ZM19.801,38.52783a1.50137,1.50137,0,0,1-1.17945.46826H17.34424V33.9458h1.27734a1.50108,1.50108,0,0,1,1.17945.46777c.36084.39991.37036,1.05323.37036,2.00831A3.36662,3.36662,0,0,1,19.801,38.52783Zm6.18335-3.00293a1.99981,1.99981,0,0,0-1.48169-.585,1.97622,1.97622,0,0,0-1.47217.585,1.90359,1.90359,0,0,0-.468.84229,4.17894,4.17894,0,0,0-.11719,1.09814,2.60531,2.60531,0,0,0,.58521,1.94971,1.85938,1.85938,0,0,0,.271.23144A2.04839,2.04839,0,0,0,24.50269,40a2.08184,2.08184,0,0,0,1.20922-.35352,1.83477,1.83477,0,0,0,.27247-.23144,2.60527,2.60527,0,0,0,.585-1.94971,4.18969,4.18969,0,0,0-.11695-1.09814A1.90591,1.90591,0,0,0,25.98438,35.5249Zm-2.5337,2.33594c-.00854-.12891-.011-.26172-.011-.39551,0-.13428.00244-.26709.011-.39551a1.457,1.457,0,0,1,.33033-.95947.93217.93217,0,0,1,.32055-.21094,1.08111,1.08111,0,0,1,.40113-.07226,1.11527,1.11527,0,0,1,.40576.07226.92921.92921,0,0,1,.32544.21094.904.904,0,0,1,.18066.26367,2.68554,2.68554,0,0,1,.16065,1.09131,1.91352,1.91352,0,0,1-.34131,1.355,1.01419,1.01419,0,0,1-.7312.29248.99108.99108,0,0,1-.72168-.29248A1.4579,1.4579,0,0,1,23.45068,37.86084Zm7.29346-2.33545a1.51376,1.51376,0,0,0-1.29663-.585,1.657,1.657,0,0,0-1.1897.42871,2.69017,2.69017,0,0,0-.55566,2.0083,2.69017,2.69017,0,0,0,.55566,2.0083,1.63712,1.63712,0,0,0,1.17969.439,1.52583,1.52583,0,0,0,1.27734-.56543v.63379a1.11467,1.11467,0,0,1-1.16015,1.25732,1.38953,1.38953,0,0,1-1.07251-.43848l-.63355.63379a2.28448,2.28448,0,0,0,1.74488.65284,1.983,1.983,0,0,0,2.11572-2.08643V34.99854h-.96509Zm-1.03345,3.40234c-.89721,0-1.01416-.7705-1.01416-1.55029s.11695-1.55029,1.01416-1.55029c.897,0,1.00415.77051,1.00415,1.55029S30.60767,38.92773,29.71069,38.92773Z"/>
    <rect width="48" height="48" style="opacity: 0"/>
  </g>
</svg>
