<?xml version="1.0" encoding="utf-8"?>
<!-- Generator: Adobe Illustrator 27.1.1, SVG Export Plug-In . SVG Version: 6.00 Build 0)  -->
<svg version="1.1" id="Note" xmlns="http://www.w3.org/2000/svg" xmlns:xlink="http://www.w3.org/1999/xlink" x="0px" y="0px"
	 viewBox="0 0 48 48" style="enable-background:new 0 0 48 48;" xml:space="preserve">
<style type="text/css">
	.st0{fill-opacity:0;}
</style>
<path d="M11.48633,30.32227l3.38672,5.86572l-0.86621,0.5l-3.38672-5.86572L11.48633,30.32227z M25.34278,23.68799l3.38672-5.86572
	l-0.86621-0.5l-3.38672,5.86572L25.34278,23.68799z M41.50489,37.00488c0,1.37891-1.12158,2.5-2.5,2.5s-2.5-1.12109-2.5-2.5
	c0-0.74365,0.33325-1.40527,0.85059-1.86377l-2.09229-3.63623h-8.66016l-4.61865,8h-9.81494l-4.90723-8.5l4.61865-8l-2.09326-3.6377
	c-0.2478,0.08252-0.50781,0.1377-0.78271,0.1377c-1.37842,0-2.5-1.12109-2.5-2.5c0-1.37842,1.12158-2.5,2.5-2.5s2.5,1.12158,2.5,2.5
	c0,0.74414-0.33301,1.40576-0.85059,1.86377l2.09277,3.63623h8.66016l4.61865-8h9.23755l2.09692-3.63184
	c-0.52026-0.4585-0.85547-1.12207-0.85547-1.86816c0-1.37842,1.12158-2.5,2.5-2.5s2.5,1.12158,2.5,2.5
	c0,1.37891-1.12158,2.5-2.5,2.5c-0.27271,0-0.53052-0.05469-0.77637-0.13574l-2.09888,3.63574l4.61841,8l-4.61865,8.00049
	l2.09302,3.63721c0.24756-0.08203,0.50757-0.1377,0.78247-0.1377C40.3833,34.50488,41.50488,35.62646,41.50489,37.00488z
	 M37.50489,9.00488c0,0.82715,0.67285,1.5,1.5,1.5s1.5-0.67285,1.5-1.5s-0.67285-1.5-1.5-1.5S37.50489,8.17773,37.50489,9.00488z
	 M9.00489,18.50488c0.82715,0,1.5-0.67285,1.5-1.5s-0.67285-1.5-1.5-1.5s-1.5,0.67285-1.5,1.5S8.17774,18.50488,9.00489,18.50488z
	 M22.27296,23.00488l2.16504,3.75l2.16504,3.75h8.66064l4.33008-7.5l-4.33008-7.5h-8.66064
	C26.60304,15.50488,22.27296,23.00488,22.27296,23.00488z M25.73732,31.00488l-2.16504-3.75l-2.16504-3.75H12.7466l-4.33008,7.5
	l4.33008,7.5h8.66064C21.40724,38.50488,25.73732,31.00488,25.73732,31.00488z M40.5049,37.00488c0-0.82715-0.67285-1.5-1.5-1.5
	s-1.5,0.67285-1.5,1.5s0.67285,1.5,1.5,1.5S40.5049,37.83203,40.5049,37.00488z"/>
<rect class="st0" width="48" height="48"/>
</svg>
