<?xml version="1.0" encoding="utf-8"?>
<!-- Generator: Adobe Illustrator 27.1.1, SVG Export Plug-In . SVG Version: 6.00 Build 0)  -->
<svg version="1.1" id="Art_3.0" xmlns="http://www.w3.org/2000/svg" xmlns:xlink="http://www.w3.org/1999/xlink" x="0px" y="0px"
	 viewBox="0 0 48 47.99627" style="enable-background:new 0 0 48 47.99627;" xml:space="preserve">
<style type="text/css">
	.st0{fill-opacity:0;}
</style>
<g>
	<path d="M21.50537,7.49902c-5.39612,0-10.03229,3.30566-11.99609,7.99707H9.5v0.02539
		c-0.63849,1.53418-0.99463,3.21484-0.99463,4.97754c0,7.16797,5.83154,13,13,13s13-5.83203,13-13
		C34.50537,13.33056,28.67383,7.49902,21.50537,7.49902z M21.50537,32.49902c-5.21362,0-9.64893-3.34814-11.30084-8.00293H20.5v-1
		H9.8996c-0.24823-0.95996-0.39423-1.96094-0.39423-2.99707c0-0.00098,0.00012-0.00195,0.00012-0.00293H17.5v-1H9.55615
		c0.08704-1.04443,0.31195-2.04785,0.65033-3H13.5v-1h-2.88788c1.90143-4.12256,6.06329-6.99707,10.89325-6.99707
		c6.6167,0,12,5.38281,12,12C33.50537,27.11572,28.12207,32.49902,21.50537,32.49902z"/>
	<path d="M32.9165,30.20508c2.31592-2.71826,3.58594-6.14648,3.58594-9.70605c0-8.27002-6.72754-14.99805-14.99707-14.99805
		S6.50781,12.22901,6.50781,20.49903c0,8.26953,6.72803,14.99707,14.99756,14.99707c3.08545,0,6.04102-0.93604,8.5752-2.71191
		l7.92432,7.92432l2.70703-2.70752l-7.79541-7.7959L32.9165,30.20508z M30.18164,31.4707l-0.34668,0.25781
		c-2.43652,1.81055-5.31689,2.76758-8.32959,2.76758c-7.71826,0-13.99756-6.2793-13.99756-13.99707
		c0-7.71875,6.2793-13.99805,13.99756-13.99805c7.71777,0,13.99707,6.2793,13.99707,13.99805
		c0,3.46875-1.29297,6.80469-3.64111,9.39258l-0.32031,0.35254l7.75684,7.75684l-1.29297,1.29297l-7.82324-7.82324L30.18164,31.4707
		z"/>
	<rect x="14.5" y="15.49609" width="6" height="1"/>
	<rect x="21.5" y="23.49609" width="7" height="1"/>
	<rect x="19.5" y="19.49609" width="4" height="1"/>
	<rect x="25.5" y="19.49609" width="2" height="1"/>
	<rect x="22.5" y="15.49609" width="4" height="1"/>
</g>
<rect class="st0" width="48" height="48"/>
<rect class="st0" width="48" height="48"/>
</svg>
