<?xml version="1.0" encoding="utf-8"?>
<!-- Generator: Adobe Illustrator 27.1.1, SVG Export Plug-In . SVG Version: 6.00 Build 0)  -->
<svg version="1.1" id="Art_3.0" xmlns="http://www.w3.org/2000/svg" xmlns:xlink="http://www.w3.org/1999/xlink" x="0px" y="0px"
	 viewBox="0 0 48 48" style="enable-background:new 0 0 48 48;" xml:space="preserve">
<style type="text/css">
	.st0{fill-opacity:0;}
</style>
<path d="M16.5,40.47864H7.45361v-1H16.5V40.47864z M40.45361,39.47864H32.5v1h7.95361V39.47864z M25.5,39.47864h-2v1h2V39.47864z
	 M12.5,8.47864h3v-1h-4v4h1V8.47864z M37.5,7.47864h-4v1h3v3h1V7.47864z M15.5,37.47864h-3v-3h-1v4h4V37.47864z M37.5,34.47864h-1v3
	h-3v1h4V34.47864z M26.45361,10.97852c0,2.48145-2.01855,4.5-4.5,4.5s-4.5-2.01855-4.5-4.5s2.01855-4.5,4.5-4.5
	S26.45361,8.49707,26.45361,10.97852z M23.11609,14.26514c0.25415-0.09033,0.49695-0.20215,0.72034-0.3457l-5.33228-3.43994
	c-0.02393,0.16406-0.05054,0.32812-0.05054,0.49902c0,0.10205,0.02148,0.19775,0.03003,0.29785
	C18.48364,11.27637,23.11609,14.26514,23.11609,14.26514z M24.61121,13.2295c0.11218-0.13232,0.21765-0.26855,0.30957-0.4165
	l-5.87-3.78711c-0.09656,0.14307-0.1731,0.29932-0.24805,0.45654C18.80273,9.48243,24.6112,13.2295,24.61121,13.2295z
	 M25.3208,11.88136c0.06372-0.2373,0.10376-0.48193,0.11597-0.73584l-5.06848-3.26953
	c-0.22278,0.11426-0.42957,0.25098-0.62158,0.40869l5.5741,3.59668H25.3208z M21.95361,7.47853
	c-0.10559,0-0.20508,0.02197-0.30835,0.03125l3.59961,2.32227C24.76721,8.46682,23.47973,7.47853,21.95361,7.47853z
	 M21.53759,14.43654l-2.56982-1.65771C19.51257,13.67873,20.44568,14.3052,21.53759,14.43654z M31.28759,39.42824
	c-0.54688,0.68115-1.36133,1.07178-2.23486,1.07178c-1.41748,0-2.63721-1.05811-2.8374-2.46143l-1.66016-5.77637l-0.25952-0.25928
	l-1.3479,6.26416c-0.33008,1.32129-1.49707,2.23291-2.84229,2.23291c-0.90674,0-1.74707-0.41016-2.30566-1.12451
	c-0.55811-0.71484-0.75244-1.62939-0.5332-2.50928l1.70361-7.56836C18.67114,29.4248,18.34484,29.50001,18,29.50001
	c-1.37842,0-2.5-1.12158-2.5-2.5v-6.18799l3.25098-4.33447l5.43408,0.02344l5.46729,4.66357
	c0.53613,0.45996,0.85889,1.12744,0.88574,1.83252c0.02686,0.7041-0.24365,1.39453-0.74219,1.89258
	c-0.90137,0.90088-2.44043,0.9668-3.41016,0.16553l0.09277,0.74219l3.98438,4.95898l1.38721,6.25781
	c0.18896,0.85303-0.01611,1.73291-0.5625,2.41406L31.28759,39.42824z M29.34289,39.46779
	c0.28552-0.04492,0.55249-0.15234,0.78589-0.31885l-3.12732-1.97998l0.18945,0.66113c0.0166,0.1123,0.0437,0.21924,0.07642,0.32324
	l2.07556,1.31445V39.46779z M30.76122,38.36525c0.09766-0.22705,0.15576-0.46875,0.15723-0.71631l-4.61743-2.92334l0.28589,0.99707
	l4.17432,2.64258H30.76122z M16.49999,21.14552v0.19092l3,1.89941v-0.81641l-2.68213-1.69824L16.49999,21.14552z M23.81493,17.49904
	l-0.74487-0.00293l1.48022,0.93701l-0.04297-0.34326L23.81493,17.49904z M21.18749,17.4883l-1.29785-0.00586l4.93213,3.12256
	l-0.11084-0.88623L21.18749,17.4883z M25.80517,20.41164l0.11084,0.88623l3.54968,2.24707
	c0.04993-0.16309,0.07971-0.33301,0.07288-0.50977c-0.00366-0.09766-0.01904-0.19238-0.04004-0.28516
	C29.49853,22.75001,25.80517,20.41163,25.80517,20.41164z M28.83984,30.33303L20.5,25.05276v0.81641l9.1377,5.78516
	l-0.10059-0.45361l-0.69727-0.86768V30.33303z M26.90405,27.92385l-1.33459-1.66162L20.5,23.05276v0.81641
	C20.5,23.86917,26.90405,27.92386,26.90405,27.92385z M28.00195,24.61867c0.30322-0.00049,0.59106-0.11182,0.84668-0.27979
	L26.07678,22.584l0.10925,0.87354l0.03113,0.03076C26.21716,23.4883,28.00195,24.61867,28.00195,24.61867z M18.8518,18.00929
	l-0.41504,0.55322l6.65649,4.21436l-0.11084-0.88623C24.98241,21.89064,18.85179,18.00929,18.8518,18.00929z M17.83483,19.36525
	l-0.41492,0.55371l7.94482,5.02979l-0.11084-0.88574C25.25389,24.06301,17.83482,19.36526,17.83483,19.36525z M16.49999,22.52004
	v0.81641l3,1.89941v-0.81641L16.49999,22.52004z M16.49999,24.52004v0.81641l2.94263,1.86328l0.05737-0.25537v-0.5249
	C19.49999,26.41946,16.49999,24.52005,16.49999,24.52004z M23.43285,29.72609l6.72034,4.25439l-0.21045-0.94922l-8.73462-5.53027
	C21.20812,27.50099,23.43285,29.72609,23.43285,29.72609z M25.60082,32.28224l0.28564,0.99707l4.78235,3.02783l-0.21045-0.94971
	l-4.85754-3.0752L25.60082,32.28224z M25.63524,19.05275l0.00928,0.07324l0.29883,0.18945
	C25.94335,19.31544,25.63524,19.05274,25.63524,19.05275z M17.99999,28.50002c0.3877,0,0.73828-0.15186,1.00464-0.39404
	l-2.50464-1.58594v0.47998C16.49999,27.82717,17.17284,28.50002,17.99999,28.50002z M21.97411,38.04055l0.01038-0.04834
	l-3.4541-2.18652l-0.16089,0.71436l3.34216,2.11572C21.82946,38.45755,21.91991,38.25784,21.97411,38.04055z M22.20849,36.95071
	l0.15454-0.71826l-3.43872-2.17725l-0.16064,0.71436C18.76367,34.76956,22.20849,36.95071,22.20849,36.95071z M22.58715,35.19046
	l0.15454-0.71826l-3.42334-2.16748l-0.16064,0.71436C19.15771,33.01908,22.58715,35.19047,22.58715,35.19046z M22.96581,33.43021
	l0.15454-0.71826l-3.40796-2.15771l-0.16077,0.71436C19.55162,31.2686,22.9658,33.43022,22.96581,33.43021z M20.10546,39.50003
	c0.28528,0,0.54785-0.08057,0.79431-0.19385l-2.71484-1.71924c0.00171,0.35889,0.10913,0.70215,0.30115,1.00684l1.39038,0.88037
	C19.95275,39.48343,20.02734,39.50003,20.10546,39.50003z M23.45385,31.16116l-0.64941-0.64941l-2.698-1.70801l-0.16077,0.71436
	l3.3988,2.15186C23.34447,31.66996,23.45385,31.16117,23.45385,31.16116z"/>
<rect class="st0" width="48" height="48"/>
</svg>
