<?xml version="1.0" encoding="utf-8"?>
<!-- Generator: Adobe Illustrator 27.1.1, SVG Export Plug-In . SVG Version: 6.00 Build 0)  -->
<svg version="1.1" id="Art_3.0" xmlns="http://www.w3.org/2000/svg" xmlns:xlink="http://www.w3.org/1999/xlink" x="0px" y="0px"
	 viewBox="0 0 48 48" style="enable-background:new 0 0 48 48;" xml:space="preserve">
<style type="text/css">
	.st0{fill-opacity:0;}
</style>
<path d="M36.49512,8.51758h-3v-1h4v4h-1V8.51758z M11.49512,8.51758h3v-1h-4v4h1V8.51758z M37.49512,29.51758h-1v3h-3v1h4
	C37.49512,33.51758,37.49512,29.51758,37.49512,29.51758z M14.49512,32.51758h-3v-3h-1v4h4V32.51758z M17.45996,10.49414h-1v1h1
	V10.49414z M15.50684,13.51172h-1v1h1V13.51172z M19.49707,20.5h1v-1h-1V20.5z M20.49707,15.5h-1v1h1V15.5z M19.49707,25.5h1v-1h-1
	V25.5z M24.50684,28.50586h-1v1h1V28.50586z M39.99512,39.49414v1.04688l-12.85938-3.97412l-3.14062,3.14014l-3.14062-3.14014
	L7.99512,40.54102v-1.04688l12.5-3.86279v-2.34424c-3.86182-1.79004-5.87842-6.89258-5.98975-15.2627l-0.00684-0.49268
	l0.98486-0.01318l0.00635,0.49219c0.13232,9.97217,2.99414,15.02832,8.50537,15.02832c4.20801,0,8.51025-1.87158,8.51025-15.75342
	c0-4.84863-3.81787-8.79346-8.51025-8.79346c-1.28174,0-2.51318,0.28711-3.66016,0.85254l-0.44141,0.21777l-0.43555-0.88281
	l0.44141-0.21777c1.28369-0.6333,2.66162-0.9541,4.0957-0.9541c5.23535,0,9.49463,4.38623,9.49463,9.77783
	c0,9.2627-1.88135,14.40869-5.99463,16.09961v2.24609l12.5,3.86279L39.99512,39.49414z M23.99512,38.29297l2.5-2.50049V33.7168
	c-0.73352,0.18994-1.52539,0.29248-2.38306,0.30078c-0.04004,0.00049-0.07654,0.00586-0.11694,0.00586
	c-0.0365,0-0.06982-0.00537-0.1062-0.00586c-0.85779-0.00879-1.65259-0.13232-2.3938-0.35205v2.12695L23.99512,38.29297z
	 M27.48535,20.5h1v-1h-1V20.5z M28.48535,15.5h-1v1h1V15.5z M27.48535,25.5h1v-1h-1V25.5z"/>
<rect class="st0" width="48" height="48"/>
</svg>
