<?xml version="1.0" encoding="utf-8"?>
<!-- Generator: Adobe Illustrator 27.1.1, SVG Export Plug-In . SVG Version: 6.00 Build 0)  -->
<svg version="1.1" id="Art_3.0" xmlns="http://www.w3.org/2000/svg" xmlns:xlink="http://www.w3.org/1999/xlink" x="0px" y="0px"
	 viewBox="0 0 48 48" style="enable-background:new 0 0 48 48;" xml:space="preserve">
<style type="text/css">
	.st0{fill-opacity:0;}
</style>
<g>
	<path d="M14.5,6.5h4.57458l0.5719,2h6.76074l0.53558-2h5.55719v17h1v-18H13.5v30h3v-1h-2V6.5z M25.63965,7.5h-5.23926l-0.28583-1
		h5.79303L25.63965,7.5z"/>
	<polygon points="30.5,22.5 31.5,22.5 31.5,9.5 15.5,9.5 15.5,32.5 16.5,32.5 16.5,10.5 30.5,10.5 	"/>
	<path d="M32.5,25.5c-0.41162,0-0.79395,0.125-1.1123,0.33887C31.11377,25.05957,30.3711,24.5,29.5,24.5
		c-0.59668,0-1.1333,0.2627-1.5,0.67871C27.6333,24.76269,27.09668,24.5,26.5,24.5c-0.36377,0-0.70557,0.09766-1,0.26855V20.5
		c0-1.10254-0.89697-2-2-2s-2,0.89746-2,2v7.00195h-1.88379l-1.09912,4.10254L18.5,33.29101
		c0,0.5415,0.12793,1.0835,0.37012,1.56689l2.36572,4.73242C21.40869,39.93553,21.5,40.32177,21.5,40.708v1.79199h1V40.708
		c0-0.54053-0.12793-1.08203-0.36963-1.56494l-2.36572-4.73291C19.59131,34.06493,19.5,33.67772,19.5,33.291v-1.49121
		l0.88379-3.29785H21.5v4.49805h1v-12.5c0-0.55127,0.44873-1,1-1s1,0.44873,1,1v10.5h1v-4.5c0-0.55127,0.44873-1,1-1s1,0.44873,1,1
		v4.5h1v-4.5c0-0.55127,0.44873-1,1-1s1,0.44873,1,1v4.5h1v-3.5c0-0.55127,0.44873-1,1-1s1,0.44873,1,1v4.08008
		c0,0.23145-0.03223,0.46289-0.09619,0.68652l-1.76953,6.19238C31.54541,38.77293,31.5,39.09618,31.5,39.41991v3.08008h1v-3.08008
		c0-0.23145,0.03223-0.46289,0.09619-0.68652l1.76953-6.19287C34.45459,32.22754,34.5,31.90429,34.5,31.58007v-4.08008
		C34.5,26.39745,33.60303,25.49999,32.5,25.5z"/>
	<rect x="26.5" y="18.5" width="3" height="1"/>
	
		<rect x="24.24996" y="14.6027" transform="matrix(0.49999 -0.86603 0.86603 0.49999 -0.20423 29.85183)" width="3.00006" height="1.00016"/>
	
		<rect x="20.74992" y="13.60275" transform="matrix(0.86607 -0.49992 0.49992 0.86607 -4.7042 12.64598)" width="1.00016" height="3.00006"/>
	<rect x="17.5" y="18.5" width="3" height="1"/>
</g>
<rect class="st0" width="48" height="48"/>
</svg>
